# xmcd
#
# Track frame offsets: 
#        150
#        6845
#        13415
#        29285
#        49474
#        72789
#        86350
#        98825
#        107223
#        118108
#        130029
#        141251
#        154495
#        165041
#        180517
#        202183
#        208695
#
# Disc length: 2868 seconds
#
# Revision: 0
# Processed by: cddbd v1.5.2PL0 Copyright (c) Steve Scherf et al.
# Submitted via: ExactAudioCopy v0.95b3
#
DISCID=ec0b3211
DTITLE=Various Artist - Boze pravde
DYEAR=1900
DGENRE=National Folk
TTITLE0=Boze pravde hor i orkestar
TTITLE1=Boze pravde horsko izvodjenje
TTITLE2=Oj Srbijo, mila mati
TTITLE3=Vostani Serbije
TTITLE4=Svetosavska himna
TTITLE5=Srpska se truba s Kosova cuje
TTITLE6=Oj vojvodo Sindjelicu
TTITLE7=Igrale se delije
TTITLE8=Rado ide Srbin u vojnike
TTITLE9=Kapetan Koca putuje
TTITLE10=Ko to kaze, ko to laze
TTITLE11=Tamo daleko
TTITLE12=Marsirala kralja Petra garda
TTITLE13=Krece se ladja francuska
TTITLE14=Mars na Drinu instrumental
TTITLE15=Boze pravde instrumental
TTITLE16=Hej Sloveni
EXTD=
EXTT0=
EXTT1=
EXTT2=
EXTT3=
EXTT4=
EXTT5=
EXTT6=
EXTT7=
EXTT8=
EXTT9=
EXTT10=
EXTT11=
EXTT12=
EXTT13=
EXTT14=
EXTT15=
EXTT16=
PLAYORDER=
